<?xml version="1.0" encoding="UTF-8"?>
<svg width="55px" height="48px" viewBox="0 0 55 48" version="1.1" xmlns="http://www.w3.org/2000/svg" xmlns:xlink="http://www.w3.org/1999/xlink">
    <!-- Generator: Sketch 54.1 (76490) - https://sketchapp.com -->
    <title>Onyx</title>
    <desc>Created with Sketch.</desc>
    <g id="Page-1" stroke="none" stroke-width="1" fill="none" fill-rule="evenodd">
        <g id="Artboard" transform="translate(-28.000000, -29.000000)" fill-rule="nonzero">
            <g id="Onyx" transform="translate(55.000000, 53.000000) scale(-1, 1) translate(-55.000000, -53.000000) translate(27.000000, 29.000000)">
                <g id="Legs2" transform="translate(6.209677, 32.888889)">
                    <g id="Leg_F2">
                        <polygon id="LegF2" fill="#110D0A" points="6.65322581 -3.87961268e-15 0 8.91262373e-15 3.78192101e-14 5.49494949 1.33064516 5.49494949 1.33064516 8.24242424 2.66129032 8.24242424 2.66129032 15.1111111 5.32258065 15.1111111 5.32258065 5.49494949 6.65322581 5.49494949"></polygon>
                        <polygon id="PawF2" fill="#D5752C" points="1.33064516 12.3636364 2.66129032 12.3636364 2.66129032 10.989899 3.99193548 10.989899 3.99193548 9.61616162 5.32258065 9.61616162 5.32258065 15.1111111 1.33064516 15.1111111"></polygon>
                    </g>
                    <g id="Leg_B2" transform="translate(22.620968, 0.000000)" fill="#D5752C">
                        <polygon id="LegB2" points="6.65322581 4.12121212 7.98387097 4.12121212 7.98387097 5.49494949 9.31451613 5.49494949 9.31451613 15.1111111 6.65322581 15.1111111 6.65322581 9.61616162 2.66129032 9.61616162 2.66129032 8.24242424 1.33064516 8.24242424 1.33064516 6.86868687 -1.28933602e-14 6.86868687 4.24320077e-14 -7.10542736e-15 6.65322581 -6.58115537e-15"></polygon>
                        <polygon id="PawB2" points="5.32258065 12.3636364 6.65322581 12.3636364 6.65322581 9.61616162 7.98387097 9.61616162 7.98387097 10.989899 9.31451613 10.989899 9.31451613 15.1111111 5.32258065 15.1111111"></polygon>
                    </g>
                </g>
                <g id="Legs1" transform="translate(16.854839, 32.888889)">
                    <g id="Leg_F1">
                        <polygon id="LegF1" fill="#110D0A" points="-5.68434189e-14 3.22581468e-15 6.65322581 1.60180511e-14 6.65322581 6.86868687 5.32258065 6.86868687 5.32258065 9.61616162 3.99193548 9.61616162 3.99193548 15.1111111 1.33064516 15.1111111 1.33064516 5.49494949 -5.68434189e-14 5.49494949"></polygon>
                        <polygon id="PawF1" fill="#D5752C" points="0 12.3636364 1.33064516 12.3636364 1.33064516 9.61616162 2.66129032 9.61616162 2.66129032 10.989899 3.99193548 10.989899 3.99193548 15.1111111 0 15.1111111"></polygon>
                    </g>
                    <g id="Leg_B1" transform="translate(19.959677, 0.000000)">
                        <polygon id="LegB1" fill="#110D0A" points="9.31451613 4.12121212 10.6451613 4.12121212 10.6451613 5.49494949 11.9758065 5.49494949 11.9758065 15.1111111 9.31451613 15.1111111 9.31451613 9.61616162 3.99193548 9.61616162 3.99193548 8.24242424 2.66129032 8.24242424 2.66129032 6.86868687 1.33064516 6.86868687 1.33064516 4.12121212 0 4.12121212 6.26149838e-14 0 9.31451613 2.72621432e-15"></polygon>
                        <polygon id="PawB1" fill="#D5752C" points="7.98387097 12.3636364 9.31451613 12.3636364 9.31451613 9.61616162 10.6451613 9.61616162 10.6451613 10.989899 11.9758065 10.989899 11.9758065 15.1111111 7.98387097 15.1111111"></polygon>
                    </g>
                </g>
                <g id="Torso" transform="translate(4.435484, 10.666667)">
                    <g id="Tails" transform="translate(37.593723, 0.000000)" fill="#110D0A">
                        <polygon id="Tail1" points="6.71316478 6.78362573 6.71316478 10.1754386 5.37053182 10.1754386 5.37053182 11.5321637 4.02789887 11.5321637 4.02789887 12.8888889 2.68526591 12.8888889 2.68526591 14.245614 0 14.245614 0 9.49707602 1.34263296 9.49707602 1.34263296 6.78362573 2.68526591 6.78362573 2.68526591 5.42690058 4.02789887 5.42690058 4.02789887 4.07017544 5.37053182 4.07017544 5.37053182 -5.93092826e-16 6.71316478 -5.93092826e-16 6.71316478 1.35672515 8.05579773 1.35672515 8.05579773 6.78362573"></polygon>
                        <polygon id="Tail2" points="10.7410636 7.4619883 10.7410636 8.81871345 9.39843069 8.81871345 9.39843069 10.1754386 6.71316478 10.1754386 6.71316478 11.5321637 5.37053182 11.5321637 5.37053182 12.8888889 4.29299142e-14 12.8888889 4.29299142e-14 9.49707602 2.68526591 9.49707602 2.68526591 8.14035088 4.02789887 8.14035088 4.02789887 6.78362573 5.37053182 6.78362573 5.37053182 5.42690058 8.05579773 5.42690058 8.05579773 4.07017544 9.39843069 4.07017544 9.39843069 1.35672515 10.7410636 1.35672515 10.7410636 2.71345029 12.0836966 2.71345029 12.0836966 7.4619883"></polygon>
                    </g>
                    <polygon id="Torso_Base" fill="#110D0A" points="0 8.14035088 37.5937228 8.14035088 37.5937228 9.49707602 38.9363557 9.49707602 38.9363557 10.8538012 40.2789887 10.8538012 40.2789887 12.2105263 41.6216216 12.2105263 41.6216216 23.0643275 26.8526591 23.0643275 26.8526591 24.4210526 24.1673932 24.4210526 24.1673932 25.7777778 0 25.7777778"></polygon>
                    <g id="Mark" transform="translate(1.558413, 18.315789)" fill="#D5752C">
                        <polygon id="Mark1" points="0.455536181 1.42108547e-14 4.48343505 1.42108547e-14 4.48343505 1.35672515 5.826068 1.35672515 5.826068 5.42690058 4.48343505 5.42690058 4.48343505 4.07017544 3.14080209 4.07017544 3.14080209 2.71345029 1.79816914 2.71345029 1.79816914 1.35672515 0.455536181 1.35672515"></polygon>
                        <polygon id="Mark2" points="9.85396687 1.35672515 11.1965998 1.35672515 11.1965998 6.37696523e-15 15.2244987 3.55271368e-15 15.2244987 1.35672515 13.8818657 1.35672515 13.8818657 2.71345029 12.5392328 2.71345029 12.5392328 4.07017544 11.1965998 4.07017544 11.1965998 5.42690058 9.85396687 5.42690058"></polygon>
                    </g>
                </g>
                <g id="Face">
                    <g id="Head" transform="translate(3.353659, 0.000000)">
                        <polygon id="Head_Base" fill="#110D0A" points="-1.09542076e-13 2.69069069 1.34146341 2.69069069 1.34146341 1.34534535 4.02439024 1.34534535 4.02439024 3.3606751e-15 17.4390244 0 17.4390244 1.34534535 20.1219512 1.34534535 20.1219512 2.69069069 21.4634146 2.69069069 21.4634146 4.03603604 22.804878 4.03603604 22.804878 5.38138138 24.1463415 5.38138138 24.1463415 13.4534535 22.804878 13.4534535 22.804878 14.7987988 21.4634146 14.7987988 21.4634146 16.1441441 22.804878 16.1441441 22.804878 17.4894895 24.1463415 17.4894895 24.1463415 20.1801802 1.16802528e-13 20.1801802"></polygon>
                        <polygon id="Head_Ear" fill="#FFFFFF" opacity="0.5" points="18.7804878 6.72672673 20.1219512 6.72672673 20.1219512 10.7627628 21.4634146 10.7627628 21.4634146 14.7987988 20.1219512 14.7987988 20.1219512 10.7627628 18.7804878 10.7627628"></polygon>
                    </g>
                    <g id="Muzzle" transform="translate(0.000000, 9.417417)">
                        <polygon id="Muzzle_Base" fill="#D5752C" points="1.34146341 0 13.4146341 0 13.4146341 1.34534535 14.7560976 1.34534535 14.7560976 2.69069069 16.097561 2.69069069 16.097561 4.03603604 17.4390244 4.03603604 17.4390244 9.41741742 16.097561 9.41741742 16.097561 10.7627628 14.7560976 10.7627628 14.7560976 14.1261261 13.4146341 14.1261261 13.4146341 15.4714715 7.37804878 15.4714715 7.37804878 14.1261261 6.03658537 14.1261261 6.03658537 10.7627628 3.35365854 10.7627628 3.35365854 9.41741742 1.34146341 9.41741742 1.34146341 8.07207207 -1.54889651e-14 8.07207207 -1.54889651e-14 1.34534535 1.34146341 1.34534535"></polygon>
                        <polygon id="Muzzle_Lips" fill="#110D0A" opacity="0.5" points="5.36585366 8.07207207 14.7560976 8.07207207 14.7560976 9.41741742 5.36585366 9.41741742 5.36585366 8.07207207 4.02439024 8.07207207 4.02439024 9.41741742 1.34146341 9.41741742 1.34146341 8.07207207 4.02439024 8.07207207 4.02439024 5.38138138 5.36585366 5.38138138"></polygon>
                        <rect id="Muzzle_Chin" fill="#110D0A" opacity="0.300000012" x="6.03658537" y="10.7627628" width="8.7195122" height="1.34534535"></rect>
                        <polygon id="Muzzle_Nose" fill="#110D0A" points="8.04878049 2.69069069 8.04878049 4.03603604 6.70731707 4.03603604 6.70731707 5.38138138 4.02439024 5.38138138 4.02439024 4.03603604 2.68292683 4.03603604 2.68292683 1.34534535 9.3902439 1.34534535 9.3902439 2.69069069"></polygon>
                    </g>
                    <g id="Eyes" transform="translate(4.695122, 4.036036)">
                        <path d="M0,2.69069069 L2.68292683,2.69069069 L2.68292683,5.38138138 L0,5.38138138 L0,2.69069069 Z M9.3902439,2.69069069 L12.0731707,2.69069069 L12.0731707,5.38138138 L9.3902439,5.38138138 L9.3902439,2.69069069 Z" id="Eyes_Base" fill="#FFFFFF"></path>
                        <path d="M0.670731707,3.36336336 L2.01219512,3.36336336 L2.01219512,4.70870871 L0.670731707,4.70870871 L0.670731707,3.36336336 Z M10.0609756,3.36336336 L11.402439,3.36336336 L11.402439,4.70870871 L10.0609756,4.70870871 L10.0609756,3.36336336 Z" id="Eyes_Iris" fill="#110D0A"></path>
                        <path d="M0.670731707,0 L3.35365854,0 L3.35365854,1.34534535 L0.670731707,1.34534535 L0.670731707,0 Z M8.7195122,0 L11.402439,0 L11.402439,1.34534535 L8.7195122,1.34534535 L8.7195122,0 Z" id="Brows" fill="#D5752C"></path>
                    </g>
                </g>
            </g>
        </g>
    </g>
</svg>